<svg xmlns="http://www.w3.org/2000/svg" viewBox="0 0 1000 979.85"><defs><style>.cls-1{fill:#1a5a96;}.cls-2{fill:#fcba19;}.cls-3{fill:#036;}</style></defs><g id="Layer_2" data-name="Layer 2"><g id="Layer_1-2" data-name="Layer 1"><g id="_5" data-name="5"><path class="cls-1" d="M302.85,332.39V822.3L575.72,979.85l121.44-70.13V629.28L605.7,682.09V839.62a30,30,0,0,1-45,26L409.3,778.17a30,30,0,0,1-15-26V402.5a30,30,0,0,1,15-26l106.45-61.47-91.46-52.8Z"/><path class="cls-2" d="M560.72,515.89,454.28,454.43V560l121.44,70.13,424.28-245V70.12L878.56,0,635.68,140.23,727.14,193l136.43-78.77a30,30,0,0,1,45,26V315.07a30,30,0,0,1-15,26L590.71,515.88A30,30,0,0,1,560.72,515.89Z"/><path class="cls-3" d="M605.7,315.08V438l91.46-52.8V245L272.88,0,0,157.54V297.77L242.89,438V332.4L106.45,253.62a30,30,0,0,1,0-51.93l151.44-87.42a29.91,29.91,0,0,1,30,0L590.71,289.12A30,30,0,0,1,605.7,315.08Z"/></g></g></g></svg>