<?xml version="1.0" encoding="utf-8"?>
<!-- Generator: Adobe Illustrator 26.5.0, SVG Export Plug-In . SVG Version: 6.00 Build 0)  -->
<svg version="1.1" id="Layer_1" xmlns="http://www.w3.org/2000/svg" xmlns:xlink="http://www.w3.org/1999/xlink" x="0px" y="0px"
	 viewBox="0 0 300 50" style="enable-background:new 0 0 300 50;" xml:space="preserve">
<style type="text/css">
	.st0{fill:#234075;}
	.st1{clip-path:url(#SVGID_00000067957448906906255770000001398018598385504928_);}
	.st2{fill:#748FC2;}
	.st3{fill:#96C230;}
	.st4{fill:#163266;}
	.st5{clip-path:url(#SVGID_00000118369630600883051550000007037088961011748998_);}
	.st6{fill:#305997;}
	.st7{fill:#F3BB11;}
</style>
<g id="Group_545" transform="translate(-177 -191)">
	<path id="Path_6149" class="st0" d="M257.3,203.86v3.33h-9.04v20.55h-4.28v-20.55h-9.04v-3.33H257.3z M277.98,203.86
		c2.4-0.13,4.77,0.55,6.74,1.92c1.63,1.21,2.57,3.14,2.5,5.17c0.1,2.04-0.84,3.99-2.5,5.19c-1.99,1.31-4.36,1.95-6.74,1.83
		l-0.4,0.22h-6.12v9.55h-4.24v-23.88H277.98z M277.66,214.97c1.36,0.1,2.71-0.23,3.86-0.96c0.88-0.72,1.35-1.82,1.26-2.95
		c0.08-1.12-0.39-2.21-1.26-2.93c-1.15-0.74-2.5-1.08-3.86-0.98h-6.2v7.81H277.66z M280.18,215.77l8.6,11.97h-4.92l-7.36-10.46
		L280.18,215.77z M320.82,227.74h-4.52l-2.52-6.26H302.7l-2.52,6.26h-4.4l9.96-23.88h5.12L320.82,227.74z M303.9,218.33h8.68
		l-4.32-11.14L303.9,218.33z M351.26,221.41c-0.5,1.4-1.32,2.65-2.4,3.67c-1.08,1.01-2.36,1.78-3.76,2.26
		c-1.53,0.52-3.14,0.78-4.76,0.76c-2.29,0.06-4.56-0.45-6.6-1.48c-1.83-0.95-3.33-2.42-4.32-4.23c-1.06-2.03-1.58-4.3-1.52-6.58
		c-0.06-2.29,0.46-4.56,1.52-6.58c0.99-1.81,2.49-3.28,4.32-4.23c2.03-1.03,4.28-1.54,6.56-1.48c1.59-0.02,3.17,0.2,4.7,0.65
		c1.32,0.39,2.54,1.06,3.58,1.95c1,0.89,1.78,2.01,2.28,3.26l-4.04,1.63c-0.42-1.27-1.23-2.36-2.32-3.13
		c-1.19-0.71-2.57-1.06-3.96-1c-1.49-0.03-2.97,0.33-4.28,1.05c-1.23,0.71-2.23,1.76-2.86,3.04c-0.72,1.51-1.07,3.17-1.02,4.85
		c-0.05,1.66,0.28,3.31,0.96,4.83c0.58,1.28,1.55,2.35,2.76,3.06c1.32,0.73,2.81,1.09,4.32,1.05c1.49,0.04,2.95-0.35,4.22-1.13
		c1.22-0.81,2.12-2.02,2.54-3.42L351.26,221.41z M381.18,203.86v3.33h-9.04v20.55h-4.28v-20.55h-9.04v-3.33H381.18z M395.38,203.86
		v23.88h-4.28v-23.88H395.38z M418.98,203.5c2.3-0.06,4.58,0.45,6.64,1.48c1.83,0.95,3.33,2.42,4.32,4.23
		c1.06,2.03,1.58,4.3,1.52,6.58c0.06,2.29-0.46,4.56-1.52,6.58c-0.99,1.81-2.49,3.28-4.32,4.23c-2.06,1.03-4.34,1.54-6.64,1.49
		c-2.29,0.06-4.56-0.45-6.6-1.48c-1.83-0.95-3.33-2.42-4.32-4.23c-1.06-2.03-1.58-4.3-1.52-6.59c-0.06-2.29,0.46-4.56,1.52-6.58
		c0.99-1.81,2.49-3.28,4.32-4.23C414.42,203.96,416.69,203.45,418.98,203.5z M418.98,206.87c-1.49-0.04-2.96,0.32-4.26,1.05
		c-1.2,0.71-2.15,1.77-2.74,3.04c-0.68,1.52-1.01,3.18-0.96,4.85c-0.05,1.66,0.28,3.31,0.96,4.83c0.58,1.27,1.54,2.34,2.74,3.06
		c1.3,0.73,2.77,1.09,4.26,1.05c1.5,0.04,2.99-0.32,4.3-1.05c1.2-0.72,2.16-1.78,2.74-3.06c0.68-1.52,1.01-3.17,0.96-4.83
		c0.05-1.67-0.28-3.32-0.96-4.85c-0.59-1.27-1.54-2.33-2.74-3.04C421.97,207.18,420.48,206.82,418.98,206.87z M464.26,203.87v23.87
		h-5.08l-10.2-15.05l-2.56-4.23h-0.04l0.16,3.87v15.41h-3.92v-23.88h5.04l10.16,15.01l2.6,4.3h0.04l-0.16-3.91v-15.41L464.26,203.87
		z"/>
	<g id="Group_544" transform="translate(177 191)">
		<g>
			<defs>
				<rect id="SVGID_1_" x="12.74" y="8.5" width="34" height="33"/>
			</defs>
			<clipPath id="SVGID_00000018200160706010439890000013836951068025044626_">
				<use xlink:href="#SVGID_1_"  style="overflow:visible;"/>
			</clipPath>
			<g id="Group_543" style="clip-path:url(#SVGID_00000018200160706010439890000013836951068025044626_);">
				<path id="Path_6145" class="st2" d="M30.14,19.11c0,0-2.72,1.6-3.28,1.91c-0.47,0.23-0.76,0.72-0.73,1.25
					c0.01,1.89,0.03,9.65,0.02,11.54c-0.01,0.24,0.04,0.49,0.15,0.71c0.12,0.21,0.31,0.39,0.53,0.5c0.79,0.45,3.97,2.21,4.76,2.66
					c0.35,0.26,0.81,0.31,1.21,0.13c0.35-0.25,0.54-0.67,0.49-1.1c0-0.78,0-5.15,0-5.15l3.08-1.76l0.01,9.34l-4.09,2.37l-9.27-5.25
					V19.72l4.08-2.34L30.14,19.11z"/>
				<path id="Path_6146" class="st3" d="M46.7,10.92l0.04,10.61l-14.42,8.23l-4.07-2.36v-3.47c0,0,2.75,1.56,3.3,1.88
					c0.21,0.14,0.46,0.22,0.72,0.22c0.26-0.01,0.51-0.08,0.73-0.22c1.65-0.95,8.4-4.82,10.05-5.76c0.22-0.11,0.4-0.28,0.54-0.48
					c0.13-0.21,0.19-0.45,0.18-0.7c-0.01-0.91-0.05-4.52-0.05-5.43c0.05-0.43-0.14-0.85-0.49-1.11c-0.39-0.18-0.85-0.13-1.2,0.12
					c-0.68,0.39-4.5,2.56-4.5,2.56l-3.06-1.77l8.14-4.66L46.7,10.92z"/>
				<path id="Path_6147" class="st0" d="M12.74,13.93L21.9,8.5l14.46,8.16l0.03,4.68l-3,1.77c0,0-0.06-3.15-0.05-3.78
					c0.01-0.25-0.05-0.51-0.17-0.73c-0.14-0.22-0.33-0.4-0.56-0.51c-1.66-0.93-8.45-4.73-10.1-5.67c-0.21-0.13-0.45-0.2-0.69-0.22
					c-0.25,0-0.49,0.07-0.7,0.21c-0.78,0.47-3.89,2.34-4.67,2.81c-0.4,0.18-0.67,0.55-0.71,0.98c0.05,0.43,0.32,0.8,0.71,0.97
					c0.68,0.39,4.51,2.55,4.51,2.55l0.02,3.52l-8.18-4.6L12.74,13.93z"/>
			</g>
		</g>
	</g>
</g>
</svg>
